<?xml version="1.0" encoding="UTF-8"?>
<svg fill="#F2FEFF" width="100pt" height="100pt" version="1.1" viewBox="0 0 100 100" xmlns="http://www.w3.org/2000/svg">
 <path d="m81.254 57.012c-4.4453 2.5586-9.1484 3.8555-13.984 3.8555-15.516 0-28.141-12.621-28.141-28.141 0-4.8438 1.3008-9.5469 3.8594-13.977 0.30469-0.53125 0.26172-1.1914-0.11719-1.6758s-1.0117-0.68359-1.5977-0.51953c-14.586 4.2109-24.773 17.672-24.773 32.734 0 18.863 15.344 34.211 34.203 34.211 15.066 0 28.531-10.188 32.738-24.773 0.16797-0.58984-0.035156-1.2188-0.51562-1.5977-0.48438-0.375-1.1445-0.42188-1.6719-0.11719zm-30.551 23.488c-17.203 0-31.203-14-31.203-31.211 0-12.52 7.7227-23.824 19.168-28.637-1.6875 3.8789-2.5391 7.9258-2.5391 12.07 0 17.172 13.969 31.141 31.141 31.141 4.1445 0 8.1953-0.85547 12.082-2.543-4.8125 11.453-16.121 19.18-28.648 19.18z"/>
</svg>
