<?xml version="1.0" encoding="UTF-8"?>
<svg width="90px" height="48px" viewBox="0 0 90 48" version="1.1" xmlns="http://www.w3.org/2000/svg" xmlns:xlink="http://www.w3.org/1999/xlink">
    <!-- Generator: Sketch 41.2 (35397) - http://www.bohemiancoding.com/sketch -->
    <title>Group</title>
    <desc>Created with Sketch.</desc>
    <defs></defs>
    <g id="Page-1" stroke="none" stroke-width="1" fill="none" fill-rule="evenodd">
        <g id="Group" fill="#000000">
            <path d="M88.75,37.094 L65,37.094 C65,26.067 56.0273,17.094 45,17.094 C33.9727,17.094 25,26.0667 25,37.094 L1.25,37.094 C0.55859,37.094 0,37.65259 0,38.344 C0,39.03541 0.55859,39.594 1.25,39.594 L16.617,39.594 L9.5584,46.6526 C9.31621,46.89479 9.31621,47.29322 9.5584,47.53541 C9.67949,47.6565 9.83965,47.719 9.99981,47.719 C10.15997,47.719 10.32012,47.6565 10.44122,47.53541 L18.38262,39.59401 L35.36262,39.59401 L28.30402,46.65261 C28.06183,46.8948 28.06183,47.29323 28.30402,47.53542 C28.42511,47.65651 28.58527,47.71901 28.74543,47.71901 C28.90559,47.71901 29.06574,47.65651 29.18684,47.53542 L37.12824,39.59402 L54.10824,39.59402 L47.04964,46.65262 C46.80745,46.89481 46.80745,47.29324 47.04964,47.53543 C47.17073,47.65652 47.33089,47.71902 47.49105,47.71902 C47.65121,47.71902 47.81136,47.65652 47.93246,47.53543 L55.87386,39.59403 L72.85386,39.59403 L65.79526,46.65263 C65.55307,46.89482 65.55307,47.29325 65.79526,47.53544 C65.91635,47.65653 66.07651,47.71903 66.23667,47.71903 C66.39683,47.71903 66.55698,47.65653 66.67808,47.53544 L74.61948,39.59404 L88.74848,39.59404 C89.43989,39.59404 89.99848,39.03545 89.99848,38.34404 C89.99848,37.65263 89.43989,37.09404 88.74848,37.09404 L88.75,37.094 Z M45,19.594 C54.6484,19.594 62.5,27.4456 62.5,37.094 L27.5,37.094 C27.5,27.4456 35.3516,19.594 45,19.594 Z" id="Shape"></path>
            <path d="M60.344,19.242 C60.441656,19.300593 60.55103,19.327937 60.6565,19.327937 C60.87134,19.327937 61.08228,19.214657 61.19556,19.015437 L67.38306,8.296437 C67.55494,7.995657 67.453373,7.616747 67.1565,7.440967 C66.85962,7.269087 66.47681,7.370655 66.30494,7.671437 L60.11744,18.390437 C59.94166,18.687317 60.047127,19.070127 60.344,19.241997 L60.344,19.242 Z" id="Shape"></path>
            <path d="M45,13.906 C45.34375,13.906 45.625,13.62475 45.625,13.281 L45.625,0.906 C45.625,0.56225 45.34375,0.281 45,0.281 C44.65625,0.281 44.375,0.56225 44.375,0.906 L44.375,13.281 C44.375,13.62866 44.65625,13.906 45,13.906 Z" id="Shape"></path>
            <path d="M28.801,19.016 C28.91819,19.21522 29.12522,19.3285 29.34397,19.3285 C29.44944,19.3285 29.55881,19.301156 29.65647,19.242563 C29.95725,19.070683 30.05881,18.687873 29.88694,18.387093 L23.69944,7.668093 C23.52756,7.367313 23.14085,7.265753 22.84397,7.437623 C22.54319,7.609503 22.44163,7.992313 22.6135,8.293093 L28.801,19.016 Z" id="Shape"></path>
            <path d="M8.863,27.973 L20.816,31.1761 C20.870688,31.187819 20.92538,31.195631 20.97616,31.195631 C21.2535,31.195631 21.5035,31.012041 21.57772,30.730791 C21.667564,30.394851 21.46834,30.055011 21.13631,29.965171 L9.18331,26.762071 C8.85128,26.683946 8.50753,26.871451 8.41769,27.203481 C8.331752,27.539421 8.52707,27.883171 8.863,27.973011 L8.863,27.973 Z" id="Shape"></path>
            <path d="M69.023,31.195 C69.077687,31.195 69.12847,31.187188 69.18316,31.175469 L81.13616,27.972369 C81.46819,27.882525 81.66741,27.538779 81.57757,27.206749 C81.48773,26.874719 81.15179,26.683309 80.81195,26.765339 L68.85895,29.968439 C68.52692,30.058283 68.3277,30.402029 68.41754,30.734059 C68.495665,31.011399 68.74566,31.194999 69.02301,31.194999 L69.023,31.195 Z" id="Shape"></path>
        </g>
    </g>
</svg>